<svg xmlns="http://www.w3.org/2000/svg" xmlns:xlink="http://www.w3.org/1999/xlink" xmlns:lucid="lucid" width="440" height="937"><g transform="translate(-739 -172)" lucid:page-tab-id="0_0"><path d="M820 238c0-4.42 3.58-8 8-8h284c4.42 0 8 3.58 8 8v164c0 4.42-3.58 8-8 8H828c-4.42 0-8-3.58-8-8z" fill="#fff"/><path d="M820 238c0-4.42 3.58-8 8-8h284c4.42 0 8 3.58 8 8v164c0 4.42-3.58 8-8 8H828c-4.42 0-8-3.58-8-8zM820 270h300M880 270v140M1000 270v140" stroke="#333" fill="none"/><use xlink:href="#a" transform="matrix(1,0,0,1,830,230) translate(107.48148148148148 25.15555555555556)"/><use xlink:href="#b" transform="matrix(1,0,0,1,825,272.5) translate(13.148148148148145 20.155555555555555)"/><use xlink:href="#c" transform="matrix(1,0,0,1,885,272.5) translate(47.592592592592595 20.155555555555555)"/><use xlink:href="#d" transform="matrix(1,0,0,1,1005,272.5) translate(45.123456790123456 20.155555555555555)"/><use xlink:href="#e" transform="matrix(1,0,0,1,885,307.5) translate(14.135802469135793 20.155555555555555)"/><use xlink:href="#f" transform="matrix(1,0,0,1,1005,307.5) translate(24.604938271604933 20.155555555555555)"/><use xlink:href="#g" transform="matrix(1,0,0,1,885,342.5) translate(14.555555555555546 20.155555555555555)"/><use xlink:href="#f" transform="matrix(1,0,0,1,1005,342.5) translate(24.604938271604933 20.155555555555555)"/><use xlink:href="#h" transform="matrix(1,0,0,1,885,377.5) translate(8.654320987654305 20.155555555555555)"/><use xlink:href="#i" transform="matrix(1,0,0,1,1005,377.5) translate(36.25925925925925 20.155555555555555)"/><path d="M820 608c0-4.42 3.58-8 8-8h284c4.42 0 8 3.58 8 8v94c0 4.42-3.58 8-8 8H828c-4.42 0-8-3.58-8-8z" fill="#fff"/><path d="M820 608c0-4.42 3.58-8 8-8h284c4.42 0 8 3.58 8 8v94c0 4.42-3.58 8-8 8H828c-4.42 0-8-3.58-8-8zM820 640h300M880 640v70M1000 640v70" stroke="#333" fill="none"/><use xlink:href="#j" transform="matrix(1,0,0,1,830,600) translate(119.75308641975309 25.15555555555556)"/><use xlink:href="#b" transform="matrix(1,0,0,1,825,642.5) translate(13.148148148148145 20.155555555555555)"/><use xlink:href="#c" transform="matrix(1,0,0,1,885,642.5) translate(47.592592592592595 20.155555555555555)"/><use xlink:href="#d" transform="matrix(1,0,0,1,1005,642.5) translate(45.123456790123456 20.155555555555555)"/><use xlink:href="#k" transform="matrix(1,0,0,1,885,677.5) translate(38.60493827160494 20.155555555555555)"/><use xlink:href="#f" transform="matrix(1,0,0,1,1005,677.5) translate(24.604938271604933 20.155555555555555)"/><path d="M820 908c0-4.42 3.58-8 8-8h284c4.42 0 8 3.58 8 8v129c0 4.42-3.58 8-8 8H828c-4.42 0-8-3.58-8-8z" fill="#fff"/><path d="M820 908c0-4.42 3.58-8 8-8h284c4.42 0 8 3.58 8 8v129c0 4.42-3.58 8-8 8H828c-4.42 0-8-3.58-8-8zM820 940h300M880 940v105M1000 940v105" stroke="#333" fill="none"/><use xlink:href="#l" transform="matrix(1,0,0,1,830,900) translate(113.85185185185186 25.15555555555556)"/><use xlink:href="#b" transform="matrix(1,0,0,1,825,942.5) translate(13.148148148148145 20.155555555555555)"/><use xlink:href="#c" transform="matrix(1,0,0,1,885,942.5) translate(47.592592592592595 20.155555555555555)"/><use xlink:href="#d" transform="matrix(1,0,0,1,1005,942.5) translate(45.123456790123456 20.155555555555555)"/><use xlink:href="#e" transform="matrix(1,0,0,1,885,977.5) translate(14.135802469135793 20.155555555555555)"/><use xlink:href="#f" transform="matrix(1,0,0,1,1005,977.5) translate(24.604938271604933 20.155555555555555)"/><use xlink:href="#g" transform="matrix(1,0,0,1,885,1012.5) translate(14.555555555555546 20.155555555555555)"/><use xlink:href="#f" transform="matrix(1,0,0,1,1005,1012.5) translate(24.604938271604933 20.155555555555555)"/><path d="M820 758c0-4.42 3.58-8 8-8h284c4.42 0 8 3.58 8 8v94c0 4.42-3.58 8-8 8H828c-4.42 0-8-3.58-8-8z" fill="#fff"/><path d="M820 758c0-4.42 3.58-8 8-8h284c4.42 0 8 3.58 8 8v94c0 4.42-3.58 8-8 8H828c-4.42 0-8-3.58-8-8zM820 790h300M880 790v70M1000 790v70" stroke="#333" fill="none"/><use xlink:href="#m" transform="matrix(1,0,0,1,830,750) translate(93.60493827160494 25.15555555555556)"/><use xlink:href="#n" transform="matrix(1,0,0,1,825,792.5) translate(13.666666666666664 20.155555555555555)"/><use xlink:href="#o" transform="matrix(1,0,0,1,885,792.5) translate(27.345679012345673 20.155555555555555)"/><use xlink:href="#d" transform="matrix(1,0,0,1,1005,792.5) translate(45.123456790123456 20.155555555555555)"/><use xlink:href="#n" transform="matrix(1,0,0,1,825,827.5) translate(13.666666666666664 20.155555555555555)"/><use xlink:href="#p" transform="matrix(1,0,0,1,885,827.5) translate(21.44444444444444 20.155555555555555)"/><use xlink:href="#d" transform="matrix(1,0,0,1,1005,827.5) translate(45.123456790123456 20.155555555555555)"/><path d="M820 458c0-4.42 3.58-8 8-8h284c4.42 0 8 3.58 8 8v94c0 4.42-3.58 8-8 8H828c-4.42 0-8-3.58-8-8z" fill="#fff"/><path d="M820 458c0-4.42 3.58-8 8-8h284c4.42 0 8 3.58 8 8v94c0 4.42-3.58 8-8 8H828c-4.42 0-8-3.58-8-8zM820 490h300M880 490v70M1000 490v70" stroke="#333" fill="none"/><use xlink:href="#q" transform="matrix(1,0,0,1,830,450) translate(87.23456790123457 25.15555555555556)"/><use xlink:href="#n" transform="matrix(1,0,0,1,825,492.5) translate(13.666666666666664 20.155555555555555)"/><use xlink:href="#r" transform="matrix(1,0,0,1,885,492.5) translate(15.074074074074066 20.155555555555555)"/><use xlink:href="#d" transform="matrix(1,0,0,1,1005,492.5) translate(45.123456790123456 20.155555555555555)"/><use xlink:href="#n" transform="matrix(1,0,0,1,825,527.5) translate(13.666666666666664 20.155555555555555)"/><use xlink:href="#o" transform="matrix(1,0,0,1,885,527.5) translate(27.345679012345673 20.155555555555555)"/><use xlink:href="#d" transform="matrix(1,0,0,1,1005,527.5) translate(45.123456790123456 20.155555555555555)"/><path d="M799.5 807.5h-8c-6.63 0-12-5.36-12-12V670.35c0-6.63 5.37-12 12-12h9.5" stroke="#333" stroke-width="2" fill="none"/><path d="M799.5 797.5v20M819.5 807.5h-20" stroke="#333" stroke-width="2" fill="#fff"/><path d="M816.26 658.34L802 662.97v-9.27z" stroke="#333" stroke-width="2" fill="#333"/><path d="M799.5 842.63h-8c-6.63 0-12 5.37-12 12v91.5c0 6.62 5.37 12 12 12h9.5" stroke="#333" stroke-width="2" fill="none"/><path d="M799.5 832.63v20M819.5 842.63h-20" stroke="#333" stroke-width="2" fill="#fff"/><path d="M816.26 958.13L802 962.76v-9.27z" stroke="#333" stroke-width="2" fill="#333"/><path d="M799.5 542.63h-8c-6.63 0-12 5.37-12 12v91.77c0 6.63 5.37 12 12 12h9.5" stroke="#333" stroke-width="2" fill="none"/><path d="M799.5 532.63v20M819.5 542.63h-20" stroke="#333" stroke-width="2" fill="#fff"/><path d="M816.26 658.4L802 663.04v-9.28z" stroke="#333" stroke-width="2" fill="#333"/><path d="M799.5 507.5h-8c-6.63 0-12-5.36-12-12V299.74c0-6.62 5.37-12 12-12h9.5" stroke="#333" stroke-width="2" fill="none"/><path d="M799.5 497.5v20M819.5 507.5h-20" stroke="#333" stroke-width="2" fill="#fff"/><path d="M816.26 287.73L802 292.37v-9.27z" stroke="#333" stroke-width="2" fill="#333"/><defs><path fill="#333" d="M240 0l2-218c-23 76-54 145-80 218h-23L58-218 59 0H30v-248h44l77 211c21-75 51-140 76-211h43V0h-30" id="s"/><path fill="#333" d="M100-194c63 0 86 42 84 106H49c0 40 14 67 53 68 26 1 43-12 49-29l28 8c-11 28-37 45-77 45C44 4 14-33 15-96c1-61 26-98 85-98zm52 81c6-60-76-77-97-28-3 7-6 17-6 28h103" id="t"/><path fill="#333" d="M210-169c-67 3-38 105-44 169h-31v-121c0-29-5-50-35-48C34-165 62-65 56 0H25l-1-190h30c1 10-1 24 2 32 10-44 99-50 107 0 11-21 27-35 58-36 85-2 47 119 55 194h-31v-121c0-29-5-49-35-48" id="u"/><path fill="#333" d="M115-194c53 0 69 39 70 98 0 66-23 100-70 100C84 3 66-7 56-30L54 0H23l1-261h32v101c10-23 28-34 59-34zm-8 174c40 0 45-34 45-75 0-40-5-75-45-74-42 0-51 32-51 76 0 43 10 73 51 73" id="v"/><path fill="#333" d="M114-163C36-179 61-72 57 0H25l-1-190h30c1 12-1 29 2 39 6-27 23-49 58-41v29" id="w"/><g id="a"><use transform="matrix(0.04938271604938272,0,0,0.04938271604938272,0,0)" xlink:href="#s"/><use transform="matrix(0.04938271604938272,0,0,0.04938271604938272,14.765432098765434,0)" xlink:href="#t"/><use transform="matrix(0.04938271604938272,0,0,0.04938271604938272,24.641975308641978,0)" xlink:href="#u"/><use transform="matrix(0.04938271604938272,0,0,0.04938271604938272,39.40740740740741,0)" xlink:href="#v"/><use transform="matrix(0.04938271604938272,0,0,0.04938271604938272,49.283950617283956,0)" xlink:href="#t"/><use transform="matrix(0.04938271604938272,0,0,0.04938271604938272,59.1604938271605,0)" xlink:href="#w"/></g><path fill="#333" d="M30-248c87 1 191-15 191 75 0 78-77 80-158 76V0H30v-248zm33 125c57 0 124 11 124-50 0-59-68-47-124-48v98" id="x"/><path fill="#333" d="M194 0L95-120 63-95V0H30v-248h33v124l119-124h40L117-140 236 0h-42" id="y"/><g id="b"><use transform="matrix(0.04938271604938272,0,0,0.04938271604938272,0,0)" xlink:href="#x"/><use transform="matrix(0.04938271604938272,0,0,0.04938271604938272,11.851851851851853,0)" xlink:href="#y"/></g><path fill="#333" d="M33 0v-248h34V0H33" id="z"/><path fill="#333" d="M85-194c31 0 48 13 60 33l-1-100h32l1 261h-30c-2-10 0-23-3-31C134-8 116 4 85 4 32 4 16-35 15-94c0-66 23-100 70-100zm9 24c-40 0-46 34-46 75 0 40 6 74 45 74 42 0 51-32 51-76 0-42-9-74-50-73" id="A"/><g id="c"><use transform="matrix(0.04938271604938272,0,0,0.04938271604938272,0,0)" xlink:href="#z"/><use transform="matrix(0.04938271604938272,0,0,0.04938271604938272,4.938271604938272,0)" xlink:href="#A"/></g><path fill="#333" d="M117-194c89-4 53 116 60 194h-32v-121c0-31-8-49-39-48C34-167 62-67 57 0H25l-1-190h30c1 10-1 24 2 32 11-22 29-35 61-36" id="B"/><path fill="#333" d="M59-47c-2 24 18 29 38 22v24C64 9 27 4 27-40v-127H5v-23h24l9-43h21v43h35v23H59v120" id="C"/><g id="d"><use transform="matrix(0.04938271604938272,0,0,0.04938271604938272,0,0)" xlink:href="#z"/><use transform="matrix(0.04938271604938272,0,0,0.04938271604938272,4.938271604938272,0)" xlink:href="#B"/><use transform="matrix(0.04938271604938272,0,0,0.04938271604938272,14.814814814814817,0)" xlink:href="#C"/></g><path fill="#333" d="M63-220v92h138v28H63V0H30v-248h175v28H63" id="D"/><path fill="#333" d="M24-231v-30h32v30H24zM24 0v-190h32V0H24" id="E"/><path fill="#333" d="M135-143c-3-34-86-38-87 0 15 53 115 12 119 90S17 21 10-45l28-5c4 36 97 45 98 0-10-56-113-15-118-90-4-57 82-63 122-42 12 7 21 19 24 35" id="F"/><path fill="#333" d="M190 0L58-211 59 0H30v-248h39L202-35l-2-213h31V0h-41" id="G"/><path fill="#333" d="M141-36C126-15 110 5 73 4 37 3 15-17 15-53c-1-64 63-63 125-63 3-35-9-54-41-54-24 1-41 7-42 31l-33-3c5-37 33-52 76-52 45 0 72 20 72 64v82c-1 20 7 32 28 27v20c-31 9-61-2-59-35zM48-53c0 20 12 33 32 33 41-3 63-29 60-74-43 2-92-5-92 41" id="H"/><g id="e"><use transform="matrix(0.04938271604938272,0,0,0.04938271604938272,0,0)" xlink:href="#D"/><use transform="matrix(0.04938271604938272,0,0,0.04938271604938272,10.814814814814815,0)" xlink:href="#E"/><use transform="matrix(0.04938271604938272,0,0,0.04938271604938272,14.71604938271605,0)" xlink:href="#w"/><use transform="matrix(0.04938271604938272,0,0,0.04938271604938272,20.592592592592595,0)" xlink:href="#F"/><use transform="matrix(0.04938271604938272,0,0,0.04938271604938272,29.481481481481485,0)" xlink:href="#C"/><use transform="matrix(0.04938271604938272,0,0,0.04938271604938272,34.41975308641976,0)" xlink:href="#G"/><use transform="matrix(0.04938271604938272,0,0,0.04938271604938272,47.20987654320989,0)" xlink:href="#H"/><use transform="matrix(0.04938271604938272,0,0,0.04938271604938272,57.08641975308644,0)" xlink:href="#u"/><use transform="matrix(0.04938271604938272,0,0,0.04938271604938272,71.85185185185186,0)" xlink:href="#t"/></g><path fill="#333" d="M137 0h-34L2-248h35l83 218 83-218h36" id="I"/><path fill="#333" d="M96-169c-40 0-48 33-48 73s9 75 48 75c24 0 41-14 43-38l32 2c-6 37-31 61-74 61-59 0-76-41-82-99-10-93 101-131 147-64 4 7 5 14 7 22l-32 3c-4-21-16-35-41-35" id="J"/><path fill="#333" d="M106-169C34-169 62-67 57 0H25v-261h32l-1 103c12-21 28-36 61-36 89 0 53 116 60 194h-32v-121c2-32-8-49-39-48" id="K"/><g id="f"><use transform="matrix(0.04938271604938272,0,0,0.04938271604938272,0,0)" xlink:href="#I"/><use transform="matrix(0.04938271604938272,0,0,0.04938271604938272,10.518518518518519,0)" xlink:href="#H"/><use transform="matrix(0.04938271604938272,0,0,0.04938271604938272,20.395061728395063,0)" xlink:href="#w"/><use transform="matrix(0.04938271604938272,0,0,0.04938271604938272,26.271604938271608,0)" xlink:href="#J"/><use transform="matrix(0.04938271604938272,0,0,0.04938271604938272,35.160493827160494,0)" xlink:href="#K"/><use transform="matrix(0.04938271604938272,0,0,0.04938271604938272,45.03703703703704,0)" xlink:href="#H"/><use transform="matrix(0.04938271604938272,0,0,0.04938271604938272,54.91358024691358,0)" xlink:href="#w"/></g><path fill="#333" d="M30 0v-248h33v221h125V0H30" id="L"/><g id="g"><use transform="matrix(0.04938271604938272,0,0,0.04938271604938272,0,0)" xlink:href="#L"/><use transform="matrix(0.04938271604938272,0,0,0.04938271604938272,9.876543209876544,0)" xlink:href="#H"/><use transform="matrix(0.04938271604938272,0,0,0.04938271604938272,19.75308641975309,0)" xlink:href="#F"/><use transform="matrix(0.04938271604938272,0,0,0.04938271604938272,28.641975308641978,0)" xlink:href="#C"/><use transform="matrix(0.04938271604938272,0,0,0.04938271604938272,33.580246913580254,0)" xlink:href="#G"/><use transform="matrix(0.04938271604938272,0,0,0.04938271604938272,46.37037037037038,0)" xlink:href="#H"/><use transform="matrix(0.04938271604938272,0,0,0.04938271604938272,56.24691358024693,0)" xlink:href="#u"/><use transform="matrix(0.04938271604938272,0,0,0.04938271604938272,71.01234567901236,0)" xlink:href="#t"/></g><path fill="#333" d="M30-248c118-7 216 8 213 122C240-48 200 0 122 0H30v-248zM63-27c89 8 146-16 146-99s-60-101-146-95v194" id="M"/><path fill="#333" d="M140-251c81 0 123 46 123 126C263-46 219 4 140 4 59 4 17-45 17-125s42-126 123-126zm0 227c63 0 89-41 89-101s-29-99-89-99c-61 0-89 39-89 99S79-25 140-24" id="N"/><path fill="#333" d="M101-234c-31-9-42 10-38 44h38v23H63V0H32v-167H5v-23h27c-7-52 17-82 69-68v24" id="O"/><path fill="#333" d="M160-131c35 5 61 23 61 61C221 17 115-2 30 0v-248c76 3 177-17 177 60 0 33-19 50-47 57zm-97-11c50-1 110 9 110-42 0-47-63-36-110-37v79zm0 115c55-2 124 14 124-45 0-56-70-42-124-44v89" id="P"/><g id="h"><use transform="matrix(0.04938271604938272,0,0,0.04938271604938272,0,0)" xlink:href="#M"/><use transform="matrix(0.04938271604938272,0,0,0.04938271604938272,12.790123456790125,0)" xlink:href="#H"/><use transform="matrix(0.04938271604938272,0,0,0.04938271604938272,22.66666666666667,0)" xlink:href="#C"/><use transform="matrix(0.04938271604938272,0,0,0.04938271604938272,27.604938271604947,0)" xlink:href="#t"/><use transform="matrix(0.04938271604938272,0,0,0.04938271604938272,37.48148148148149,0)" xlink:href="#N"/><use transform="matrix(0.04938271604938272,0,0,0.04938271604938272,51.308641975308646,0)" xlink:href="#O"/><use transform="matrix(0.04938271604938272,0,0,0.04938271604938272,56.24691358024692,0)" xlink:href="#P"/><use transform="matrix(0.04938271604938272,0,0,0.04938271604938272,68.09876543209877,0)" xlink:href="#E"/><use transform="matrix(0.04938271604938272,0,0,0.04938271604938272,72.00000000000001,0)" xlink:href="#w"/><use transform="matrix(0.04938271604938272,0,0,0.04938271604938272,77.87654320987656,0)" xlink:href="#C"/><use transform="matrix(0.04938271604938272,0,0,0.04938271604938272,82.81481481481484,0)" xlink:href="#K"/></g><g id="i"><use transform="matrix(0.04938271604938272,0,0,0.04938271604938272,0,0)" xlink:href="#M"/><use transform="matrix(0.04938271604938272,0,0,0.04938271604938272,12.790123456790125,0)" xlink:href="#H"/><use transform="matrix(0.04938271604938272,0,0,0.04938271604938272,22.66666666666667,0)" xlink:href="#C"/><use transform="matrix(0.04938271604938272,0,0,0.04938271604938272,27.604938271604947,0)" xlink:href="#t"/></g><path fill="#333" d="M100-194c62-1 85 37 85 99 1 63-27 99-86 99S16-35 15-95c0-66 28-99 85-99zM99-20c44 1 53-31 53-75 0-43-8-75-51-75s-53 32-53 75 10 74 51 75" id="Q"/><path fill="#333" d="M143 0L79-87 56-68V0H24v-261h32v163l83-92h37l-77 82L181 0h-38" id="R"/><g id="j"><use transform="matrix(0.04938271604938272,0,0,0.04938271604938272,0,0)" xlink:href="#P"/><use transform="matrix(0.04938271604938272,0,0,0.04938271604938272,11.851851851851853,0)" xlink:href="#Q"/><use transform="matrix(0.04938271604938272,0,0,0.04938271604938272,21.7283950617284,0)" xlink:href="#Q"/><use transform="matrix(0.04938271604938272,0,0,0.04938271604938272,31.60493827160494,0)" xlink:href="#R"/></g><path fill="#333" d="M127-220V0H93v-220H8v-28h204v28h-85" id="S"/><path fill="#333" d="M24 0v-261h32V0H24" id="T"/><g id="k"><use transform="matrix(0.04938271604938272,0,0,0.04938271604938272,0,0)" xlink:href="#S"/><use transform="matrix(0.04938271604938272,0,0,0.04938271604938272,10.17283950617284,0)" xlink:href="#E"/><use transform="matrix(0.04938271604938272,0,0,0.04938271604938272,14.074074074074074,0)" xlink:href="#C"/><use transform="matrix(0.04938271604938272,0,0,0.04938271604938272,19.01234567901235,0)" xlink:href="#T"/><use transform="matrix(0.04938271604938272,0,0,0.04938271604938272,22.913580246913583,0)" xlink:href="#t"/></g><path fill="#333" d="M205 0l-28-72H64L36 0H1l101-248h38L239 0h-34zm-38-99l-47-123c-12 45-31 82-46 123h93" id="U"/><path fill="#333" d="M84 4C-5 8 30-112 23-190h32v120c0 31 7 50 39 49 72-2 45-101 50-169h31l1 190h-30c-1-10 1-25-2-33-11 22-28 36-60 37" id="V"/><g id="l"><use transform="matrix(0.04938271604938272,0,0,0.04938271604938272,0,0)" xlink:href="#U"/><use transform="matrix(0.04938271604938272,0,0,0.04938271604938272,11.851851851851853,0)" xlink:href="#V"/><use transform="matrix(0.04938271604938272,0,0,0.04938271604938272,21.7283950617284,0)" xlink:href="#C"/><use transform="matrix(0.04938271604938272,0,0,0.04938271604938272,26.666666666666668,0)" xlink:href="#K"/><use transform="matrix(0.04938271604938272,0,0,0.04938271604938272,36.543209876543216,0)" xlink:href="#Q"/><use transform="matrix(0.04938271604938272,0,0,0.04938271604938272,46.41975308641976,0)" xlink:href="#w"/></g><g id="m"><use transform="matrix(0.04938271604938272,0,0,0.04938271604938272,0,0)" xlink:href="#P"/><use transform="matrix(0.04938271604938272,0,0,0.04938271604938272,11.851851851851853,0)" xlink:href="#Q"/><use transform="matrix(0.04938271604938272,0,0,0.04938271604938272,21.7283950617284,0)" xlink:href="#Q"/><use transform="matrix(0.04938271604938272,0,0,0.04938271604938272,31.60493827160494,0)" xlink:href="#R"/><use transform="matrix(0.04938271604938272,0,0,0.04938271604938272,40.49382716049384,0)" xlink:href="#U"/><use transform="matrix(0.04938271604938272,0,0,0.04938271604938272,52.34567901234569,0)" xlink:href="#V"/><use transform="matrix(0.04938271604938272,0,0,0.04938271604938272,62.222222222222236,0)" xlink:href="#C"/><use transform="matrix(0.04938271604938272,0,0,0.04938271604938272,67.16049382716051,0)" xlink:href="#K"/><use transform="matrix(0.04938271604938272,0,0,0.04938271604938272,77.03703703703705,0)" xlink:href="#Q"/><use transform="matrix(0.04938271604938272,0,0,0.04938271604938272,86.9135802469136,0)" xlink:href="#w"/></g><g id="n"><use transform="matrix(0.04938271604938272,0,0,0.04938271604938272,0,0)" xlink:href="#D"/><use transform="matrix(0.04938271604938272,0,0,0.04938271604938272,10.814814814814815,0)" xlink:href="#y"/></g><g id="o"><use transform="matrix(0.04938271604938272,0,0,0.04938271604938272,0,0)" xlink:href="#P"/><use transform="matrix(0.04938271604938272,0,0,0.04938271604938272,11.851851851851853,0)" xlink:href="#Q"/><use transform="matrix(0.04938271604938272,0,0,0.04938271604938272,21.7283950617284,0)" xlink:href="#Q"/><use transform="matrix(0.04938271604938272,0,0,0.04938271604938272,31.60493827160494,0)" xlink:href="#R"/><use transform="matrix(0.04938271604938272,0,0,0.04938271604938272,40.49382716049384,0)" xlink:href="#z"/><use transform="matrix(0.04938271604938272,0,0,0.04938271604938272,45.43209876543211,0)" xlink:href="#A"/></g><g id="p"><use transform="matrix(0.04938271604938272,0,0,0.04938271604938272,0,0)" xlink:href="#U"/><use transform="matrix(0.04938271604938272,0,0,0.04938271604938272,11.851851851851853,0)" xlink:href="#V"/><use transform="matrix(0.04938271604938272,0,0,0.04938271604938272,21.7283950617284,0)" xlink:href="#C"/><use transform="matrix(0.04938271604938272,0,0,0.04938271604938272,26.666666666666668,0)" xlink:href="#K"/><use transform="matrix(0.04938271604938272,0,0,0.04938271604938272,36.543209876543216,0)" xlink:href="#Q"/><use transform="matrix(0.04938271604938272,0,0,0.04938271604938272,46.41975308641976,0)" xlink:href="#w"/><use transform="matrix(0.04938271604938272,0,0,0.04938271604938272,52.2962962962963,0)" xlink:href="#z"/><use transform="matrix(0.04938271604938272,0,0,0.04938271604938272,57.23456790123457,0)" xlink:href="#A"/></g><g id="q"><use transform="matrix(0.04938271604938272,0,0,0.04938271604938272,0,0)" xlink:href="#s"/><use transform="matrix(0.04938271604938272,0,0,0.04938271604938272,14.765432098765434,0)" xlink:href="#t"/><use transform="matrix(0.04938271604938272,0,0,0.04938271604938272,24.641975308641978,0)" xlink:href="#u"/><use transform="matrix(0.04938271604938272,0,0,0.04938271604938272,39.40740740740741,0)" xlink:href="#v"/><use transform="matrix(0.04938271604938272,0,0,0.04938271604938272,49.283950617283956,0)" xlink:href="#t"/><use transform="matrix(0.04938271604938272,0,0,0.04938271604938272,59.1604938271605,0)" xlink:href="#w"/><use transform="matrix(0.04938271604938272,0,0,0.04938271604938272,65.03703703703704,0)" xlink:href="#P"/><use transform="matrix(0.04938271604938272,0,0,0.04938271604938272,76.88888888888889,0)" xlink:href="#Q"/><use transform="matrix(0.04938271604938272,0,0,0.04938271604938272,86.76543209876543,0)" xlink:href="#Q"/><use transform="matrix(0.04938271604938272,0,0,0.04938271604938272,96.64197530864197,0)" xlink:href="#R"/></g><g id="r"><use transform="matrix(0.04938271604938272,0,0,0.04938271604938272,0,0)" xlink:href="#s"/><use transform="matrix(0.04938271604938272,0,0,0.04938271604938272,14.765432098765434,0)" xlink:href="#t"/><use transform="matrix(0.04938271604938272,0,0,0.04938271604938272,24.641975308641978,0)" xlink:href="#u"/><use transform="matrix(0.04938271604938272,0,0,0.04938271604938272,39.40740740740741,0)" xlink:href="#v"/><use transform="matrix(0.04938271604938272,0,0,0.04938271604938272,49.283950617283956,0)" xlink:href="#t"/><use transform="matrix(0.04938271604938272,0,0,0.04938271604938272,59.1604938271605,0)" xlink:href="#w"/><use transform="matrix(0.04938271604938272,0,0,0.04938271604938272,65.03703703703704,0)" xlink:href="#z"/><use transform="matrix(0.04938271604938272,0,0,0.04938271604938272,69.97530864197532,0)" xlink:href="#A"/></g></defs></g></svg>